Coordinates
version=1
nRows=7
nColumns=63
inDegrees=yes

Units are S.I. units (second, meters, Newtons, ...)
If the header above contains a line with 'inDegrees', this indicates whether rotational values are in degrees (yes) or radians (no).

endheader
time	pelvis_tilt	pelvis_list	pelvis_rotation	pelvis_tx	pelvis_ty	pelvis_tz	hip_flexion_r	hip_adduction_r	hip_rotation_r	knee_angle_r	knee_angle_r_beta	ankle_angle_r	subtalar_angle_r	mtp_angle_r	hip_flexion_l	hip_adduction_l	hip_rotation_l	knee_angle_l	knee_angle_l_beta	ankle_angle_l	subtalar_angle_l	mtp_angle_l	L5_S1_Flex_Ext	L5_S1_Lat_Bending	L5_S1_axial_rotation	L4_L5_Flex_Ext	L4_L5_Lat_Bending	L4_L5_axial_rotation	L3_L4_Flex_Ext	L3_L4_Lat_Bending	L3_L4_axial_rotation	L2_L3_Flex_Ext	L2_L3_Lat_Bending	L2_L3_axial_rotation	L1_L2_Flex_Ext	L1_L2_Lat_Bending	L1_L2_axial_rotation	L1_T12_Flex_Ext	L1_T12_Lat_Bending	L1_T12_axial_rotation	Abs_r3	Abs_r2	Abs_r1	Abs_t1	Abs_t2	neck_flexion	neck_bending	neck_rotation	arm_flex_r	arm_add_r	arm_rot_r	elbow_flex_r	pro_sup_r	wrist_flex_r	wrist_dev_r	arm_flex_l	arm_add_l	arm_rot_l	elbow_flex_l	pro_sup_l	wrist_flex_l	wrist_dev_l
      5.17021277	     -1.82296483	     -8.07668627	     89.62981200	      0.21381385	      0.71204896	      0.91012651	     11.95686612	     -2.71965156	      0.41983449	     12.85844157	      0.22442214	     21.92211985	      9.65636436	      0.00000000	      8.66161288	      0.01056768	     -5.02918089	      6.20297016	      0.10826225	     21.91019719	     -3.20930215	      0.00000000	      0.16489994	     -0.70019350	      1.83464023	      0.30623568	     -0.93125735	      1.94930524	      0.27091411	     -1.70245047	      1.94930524	      0.18846414	     -1.70245047	      1.60531020	      0.15312608	     -1.42783458	      1.49064519	      0.09422382	     -1.08459972	      1.37598017	      1.17786377	     -7.92072886	     10.20371856	      0.00000000	      0.00000000	      9.45299749	      5.26409193	     -6.54615434	     12.15880542	    -18.23133107	     19.74415463	    144.00903015	     88.27839827	    -16.74680421	     14.39269134	      4.23286184	    -27.43033031	      3.50999594	    144.95219183	     48.86772225	    -11.93468152	      6.39341016
      5.19148936	     -1.90612790	     -8.24330601	     89.59757259	      0.21440408	      0.71171873	      0.90964582	     12.13847813	     -2.76726276	      0.49870413	     12.93238924	      0.22571277	     22.07479778	      9.43136422	      0.00000000	      8.75101008	      0.08520849	     -4.84848091	      6.09194706	      0.10632453	     21.78841540	     -3.63052536	      0.00000000	      0.16181176	     -0.71626700	      1.91739062	      0.30050062	     -0.95263510	      2.03722754	      0.26584054	     -1.74153157	      2.03722754	      0.18493466	     -1.74153157	      1.67771679	      0.15025840	     -1.46061166	      1.55787988	      0.09245924	     -1.10949758	      1.43804297	      1.15580524	     -8.10255551	     10.66395142	      0.00000000	      0.00000000	     10.17169207	      5.29004982	     -6.95146313	     11.55192540	    -18.40769420	     18.01639349	    143.31166303	     88.00985410	    -15.98832905	     15.01181331	      3.74426259	    -27.84470683	      3.20733436	    144.26408068	     51.85927208	    -11.79178554	      4.08864589
      5.21276596	     -1.90326238	     -8.41603644	     89.56997274	      0.21484033	      0.71143231	      0.90912683	     12.30136813	     -2.70845540	      0.73421521	     12.96651693	      0.22630841	     22.14251492	      9.00579013	      0.00000000	      8.86052543	      0.06471599	     -5.00297137	      5.95717948	      0.10397240	     21.82520445	     -3.70424779	      0.00000000	      0.16331042	     -0.71731260	      1.91334151	      0.30328379	     -0.95402576	      2.03292535	      0.26830269	     -1.74407387	      2.03292535	      0.18664748	     -1.74407387	      1.67417382	      0.15165006	     -1.46274386	      1.55458997	      0.09331558	     -1.11111723	      1.43500613	      1.16651002	     -8.11438365	     10.64143145	      0.00000000	      0.00000000	     10.93048393	      5.45594865	     -6.73531339	     11.35550028	    -18.64808741	     16.65086405	    141.94181159	     87.12068953	    -14.65897278	     15.72922162	      2.12174692	    -28.09791958	      1.84065498	    143.34785164	     57.68676410	    -11.31244372	      0.57550295
      5.23404255	     -2.07470458	     -8.54192354	     89.35342651	      0.21535615	      0.71126804	      0.90851762	     12.47429550	     -2.81235018	      1.08369275	     13.07097561	      0.22813156	     22.27505114	      8.81400953	      0.00000000	      8.89890694	      0.20163691	     -5.52241973	      5.77022455	      0.10070942	     21.91506901	     -3.50845715	      0.00000000	      0.16705076	     -0.72664437	      1.84773869	      0.31022996	     -0.96643701	      1.96322236	      0.27444769	     -1.76676312	      1.96322236	      0.19092231	     -1.76676312	      1.61677135	      0.15512333	     -1.48177320	      1.50128768	      0.09545280	     -1.12557213	      1.38580402	      1.19322685	     -8.21994644	     10.27656826	      0.00000000	      0.00000000	     11.51646063	      5.43548249	     -5.79979354	     11.60973189	    -18.84202966	     15.89544790	    139.90878989	     84.53031973	    -12.40595334	     16.37082796	     -0.42136089	    -28.29039066	     -0.49632093	    141.95564764	     63.69278456	    -10.27124857	     -4.54945475
      5.25531915	     -2.06856775	     -8.59053390	     89.21230581	      0.21554266	      0.71126337	      0.90790346	     12.47467882	     -2.74640624	      1.41469625	     13.00879348	      0.22704628	     22.19270032	      8.58362421	      0.00000000	      8.87667026	      0.14689872	     -6.65131466	      5.61180912	      0.09794455	     22.39260810	     -2.29417471	      0.00000000	      0.17227679	     -0.70299395	      1.66752578	      0.31993522	     -0.93498195	      1.77174614	      0.28303353	     -1.70925948	      1.77174614	      0.19689514	     -1.70925948	      1.45908506	      0.15997623	     -1.43354526	      1.35486470	      0.09843896	     -1.08893762	      1.25064434	      1.23055587	     -7.95240812	      9.27427814	      0.00000000	      0.00000000	     11.90715170	      5.42861732	     -4.00232921	     12.30544121	    -19.17729089	     15.86101541	    137.17178470	     76.79313483	     -8.79534140	     16.50760219	     -3.42828619	    -27.85651976	     -4.34150852	    140.30130682	     70.08816664	     -8.17563303	     -8.25329662
      5.27659574	     -2.15090056	     -8.56873122	     88.83836410	      0.21606572	      0.71150001	      0.90720873	     12.43774554	     -2.74726989	      1.79232065	     12.96427973	      0.22626937	     22.14140414	      8.56418371	      0.00000000	      8.72787221	      0.15012131	     -8.04649394	      5.40894597	      0.09440392	     22.90930121	     -0.95406036	      0.00000000	      0.17645999	     -0.68295216	      1.57829512	      0.32770385	     -0.90832637	      1.67693856	      0.28990612	     -1.66052988	      1.67693856	      0.20167612	     -1.66052988	      1.38100823	      0.16386075	     -1.39267604	      1.28236478	      0.10082924	     -1.05789289	      1.18372134	      1.26043607	     -7.72569140	      8.77800396	      0.00000000	      0.00000000	     11.97726594	      5.25710817	     -2.20471524	     12.44822839	    -19.38370008	     15.56691557	    134.32430954	     66.30347731	     -4.59571925	     17.24879327	     -5.30479909	    -27.47261246	     -7.31850872	    137.91350255	     74.53211594	     -6.33015220	    -11.57292466
      5.29787234	     -2.22765311	     -8.47742889	     88.25849631	      0.21671589	      0.71215118	      0.90641913	     12.32576275	     -2.73073549	      2.30450527	     12.87923615	      0.22478508	     21.94998668	      8.62999555	      0.00000000	      8.45634461	      0.16568988	     -9.01179606	      5.16383256	      0.09012588	     23.04630468	     -0.49706365	      0.00000000	      0.17539206	     -0.66052396	      1.61037053	      0.32572059	     -0.87849686	      1.71101869	      0.28815161	     -1.60599795	      1.71101869	      0.20045558	     -1.60599795	      1.40907422	      0.16286906	     -1.34694046	      1.30842606	      0.10021902	     -1.02315161	      1.20777790	      1.25280791	     -7.47197912	      8.95639779	      0.00000000	      0.00000000	     11.75638543	      5.06865721	     -0.75061577	     11.63521656	    -19.46304852	     14.54596637	    131.86581306	     61.04410375	     -0.94565921	     18.21905067	     -5.87240545	    -27.25689541	     -8.80056007	    134.84474011	     77.67929210	     -5.43329109	    -14.37332750
